[img]http://www.khaolaknews.com/wp-content/uploads/2011/03/f1.jpg[/img]

Formula One 2011 Season

Race 19: Brazillian Grand Prix, Interlargos

Record Source: BBC One HD
Original Format: MPEG TS Stream
Date: Sunday 27th November 2011
Time: 15:00 to 18:10

Brazillian Grand Prix Race HD


Jake Humphrey, Martin Brundle & David Coulthard present the BBC F1 High
Definition coverage of the Final Grand Prix session for the 19th Race meeting 
of the 2011 Formula One Season, The Brazillian Grand Prix from the Interlargos Curcuit

The Race has been split into 2 seperate files. One is the Race only, 
and the other is the 1 hr pre race build up.
You can download both or just download which you want.!


Enjoy, TheBlackKnight



Complete name                    : F1 2011 Race 19 Brazil Race Build Up HD 1080 H264 AC3                      Format                           : Matroska
Format version                   : Version 2
File size                        : 1.22 GiB
Duration                         : 55mn 12s
Overall bit rate                 : 3 166 Kbps
Writing application              : HandBrake 0.9.5
Writing library                  : libmkv 0.6.4.1

Video
ID                               : 1
Format                           : AVC
Format/Info                      : Advanced Video Codec
Format profile                   : Main@L4.0
Format settings, CABAC           : Yes
Format settings, ReFrames        : 4 frames
Codec ID                         : V_MPEG4/ISO/AVC
Duration                         : 55mn 12s
Bit rate                         : 3 000 Kbps
Width                            : 1 440 pixels
Height                           : 1 080 pixels
Display aspect ratio             : 16:9
Frame rate mode                  : Variable
Frame rate                       : 25.000 fps
Color space                      : YUV
Chroma subsampling               : 4:2:0
Bit depth                        : 8 bits
Scan type                        : Progressive
Bits/(Pixel*Frame)               : 0.077
Stream size                      : 1.15 GiB (94%)
Writing library                  : x264 core 112
Language                         : English
Color primaries                  : BT.709-5, BT.1361, IEC 61966-2-4, SMPTE RP177
Transfer characteristics         : BT.709-5, BT.1361
Matrix coefficients              : BT.709-5, BT.1361, IEC 61966-2-4 709, SMPTE RP177

Audio
ID                               : 2
Format                           : AC-3
Format/Info                      : Audio Coding 3
Mode extension                   : CM (complete main)
Codec ID                         : A_AC3
Duration                         : 55mn 12s
Bit rate mode                    : Constant
Bit rate                         : 128 Kbps
Channel(s)                       : 2 channels
Channel positions                : Front: L R
Sampling rate                    : 48.0 KHz
Bit depth                        : 16 bits
Compression mode                 : Lossy
Stream size                      : 50.5 MiB (4%)
Language                         : English





Complete name                    : F1 2011 Race 19 Brazil Race HD 1080 H264 AC3 
Format                           : Matroska
Format version                   : Version 2
File size                        : 2.93 GiB
Duration                         : 2h 13mn
Overall bit rate                 : 3 127 Kbps
Writing application              : HandBrake 0.9.5
Writing library                  : libmkv 0.6.4.1

Video
ID                               : 1
Format                           : AVC
Format/Info                      : Advanced Video Codec
Format profile                   : Main@L4.0
Format settings, CABAC           : Yes
Format settings, ReFrames        : 4 frames
Format settings, GOP             : M=3, N=46
Codec ID                         : V_MPEG4/ISO/AVC
Duration                         : 2h 13mn
Bit rate                         : 3 000 Kbps
Width                            : 1 440 pixels
Height                           : 1 078 pixels
Display aspect ratio             : 16:9
Frame rate mode                  : Variable
Frame rate                       : 25.000 fps
Color space                      : YUV
Chroma subsampling               : 4:2:0
Bit depth                        : 8 bits
Scan type                        : Progressive
Bits/(Pixel*Frame)               : 0.077
Stream size                      : 2.75 GiB (94%)
Writing library                  : x264 core 112
Language                         : English
Color primaries                  : BT.709-5, BT.1361, IEC 61966-2-4, SMPTE RP177
Transfer characteristics         : BT.709-5, BT.1361
Matrix coefficients              : BT.709-5, BT.1361, IEC 61966-2-4 709, SMPTE RP177

Audio
ID                               : 2
Format                           : AC-3
Format/Info                      : Audio Coding 3
Mode extension                   : CM (complete main)
Codec ID                         : A_AC3
Duration                         : 2h 13mn
Bit rate mode                    : Constant
Bit rate                         : 128 Kbps
Channel(s)                       : 2 channels
Channel positions                : Front: L R
Sampling rate                    : 48.0 KHz
Bit depth                        : 16 bits
Compression mode                 : Lossy
Stream size                      : 123 MiB (4%)
Language                         : English

